<?xml version="1.0" encoding="UTF-8"?>
<svg id="Calque_1" class="svg-bouton bouton-accueil" data-name="Calque 1" xmlns="http://www.w3.org/2000/svg" viewBox="0 0 80 80">
    <circle cx="40" cy="40" r="40" style="opacity:0"/>
  <g transform="translate(10 10)">
    <g>
      <circle cx="32" cy="32" r="31.5" style="fill: #fff;"/>
      <path d="m32,1c17.1,0,31,13.9,31,31s-13.9,31-31,31S1,49.1,1,32,14.9,1,32,1m0-1C14.3,0,0,14.3,0,32s14.3,32,32,32,32-14.3,32-32S49.7,0,32,0h0Z"/>
    </g>
    <g id="groupeMaison">
      <path d="m48.2,42c0,1.8,0,3.7,0,5.5,0,2.1-1.6,3.8-3.6,4.2-.4,0-.8.1-1.2.1-2.3,0-4.5,0-6.8,0q-.4,0-.4-.4c0-3.6,0-7.1,0-10.7q0-.4-.4-.4c-2.6,0-5.1,0-7.7,0-.4,0-.4,0-.4.4,0,3.6,0,7.1,0,10.7q0,.4-.4.4c-2.3,0-4.6,0-6.9,0-1.8,0-3.2-.8-4.1-2.4-.4-.7-.6-1.5-.6-2.3,0-3.6,0-7.2,0-10.7,0-.4.1-.7.4-1,4.9-4.9,9.9-9.9,14.8-14.8.6-.6,1.3-.6,1.9,0,4.9,4.9,9.8,9.8,14.8,14.8.3.3.5.7.5,1.2,0,1.8,0,3.7,0,5.5,0,0,0,0,0,0Z"/>
      <path d="m41.8,17c0-.1,0-.3,0-.4,0-.8,0-1.5,0-2.3,0-1.3.9-2.3,2.2-2.5,1.2-.2,2.4.5,2.8,1.7,0,.3.1.6.1.9,0,2.4,0,4.8,0,7.2,0,.4.1.6.4.9,2.2,2.1,4.3,4.3,6.4,6.4.7.7.9,1.6.6,2.6-.3.9-.9,1.5-1.9,1.7-.9.2-1.7,0-2.4-.8-2.2-2.2-4.3-4.3-6.5-6.5-3.4-3.4-6.9-6.9-10.3-10.3-.6-.7-1.7-.6-2.4,0-5.6,5.6-11.1,11.2-16.7,16.7-.7.7-1.5,1-2.5.8-1-.2-1.6-.8-1.9-1.8-.3-.9,0-1.8.6-2.5,1.9-1.9,3.8-3.8,5.7-5.7,3.7-3.7,7.5-7.5,11.2-11.2,1.5-1.5,3.4-2.1,5.5-1.9,1.6.2,2.9.8,4,2,1.6,1.6,3.1,3.1,4.7,4.7,0,0,.1.1.2.2,0,0,0,0,0,0Z"/>
    </g>
  </g>
</svg>