<?xml version="1.0" encoding="utf-8"?>
<!-- Generator: Adobe Illustrator 23.1.1, SVG Export Plug-In . SVG Version: 6.00 Build 0)  -->
<svg version="1.1" id="Calque_2" xmlns="http://www.w3.org/2000/svg" xmlns:xlink="http://www.w3.org/1999/xlink" x="0px" y="0px"
	 viewBox="0 0 500.3 166.9" style="enable-background:new 0 0 500.3 166.9;" xml:space="preserve">
<style type="text/css">
	.st0{fill:#004F9A;}
	.st1{fill:url(#SVGID_1_);}
	.st2{fill:url(#SVGID_2_);}
	.st3{fill:url(#SVGID_3_);}
	.st4{fill:#2E353A;}
	.st5{fill:url(#SVGID_4_);}
	.st6{fill:url(#SVGID_5_);}
	.st7{fill:url(#SVGID_6_);}
	.st8{fill:url(#SVGID_7_);}
</style>
<g>
	<path class="st0" d="M68.3,134V90.2c0-3.4,2.9-6.2,6.2-6.2h31.1c3.1,0,5.4,2.6,5.4,5.4c0,3.1-2.6,5.4-5.4,5.4H80.7v11.4H102
		c3.1,0,5.4,2.6,5.4,5.4c0,3.1-2.6,5.4-5.4,5.4H80.5v11.7h25.4c3.1,0,5.4,2.6,5.4,5.4c0,3.1-2.6,5.4-5.4,5.4H74.5
		C71.1,140.3,68.3,137.4,68.3,134z"/>
	<path class="st0" d="M118.9,90.2c0-3.4,2.6-6.2,6.2-6.2h19.5c7,0,12.7,2.1,16.3,5.7c3.1,3.1,4.9,7.5,4.9,12.7v0.3
		c0,8.8-4.4,14.3-11.2,17.1l8.6,10.4c1.3,1.6,2.1,2.9,2.1,4.7c0,3.4-2.9,5.7-6,5.7c-2.9,0-4.7-1.3-6-3.1l-12.5-15.3h-9.9v12.2
		c0,3.4-2.9,6.2-6.2,6.2s-6.2-2.6-6.2-6.2V90.2H118.9z M143.5,111.2c6,0,9.3-3.1,9.3-8v-0.3c0-5.2-3.6-8-9.6-8h-12.2v16.1h12.5
		V111.2z"/>
	<path class="st0" d="M170.5,132.2L190,88.1c1.3-3.1,3.9-4.9,7.3-4.9h0.8c3.4,0,5.7,1.8,7,4.9l19.5,44.1c0.5,0.8,0.5,1.6,0.5,2.6
		c0,3.4-2.6,6-6,6c-2.9,0-4.9-1.6-6-4.2l-3.9-8.8H185l-3.9,9.3c-1,2.3-3.1,3.9-5.7,3.9c-3.1,0-5.7-2.6-5.7-5.7
		C169.7,134,170,133,170.5,132.2z M205.3,116.7l-7.8-18.4l-7.8,18.4H205.3z"/>
	<path class="st0" d="M230.4,134.3c-1.3-1-2.3-2.6-2.3-4.7c0-3.1,2.6-5.7,5.7-5.7c1.6,0,2.6,0.5,3.6,1c4.2,3.1,8.8,4.9,14.3,4.9
		c4.9,0,8-2.1,8-5.2v-0.3c0-3.1-1.8-4.7-11.4-7.3c-11.4-2.9-18.7-6-18.7-17.1v-0.3c0-10.1,8.3-16.9,19.7-16.9
		c6.7,0,12.7,1.8,17.9,4.9c1.3,0.8,2.9,2.6,2.9,4.9c0,3.1-2.6,5.7-5.7,5.7c-1.3,0-2.1-0.3-3.1-0.8c-4.2-2.3-8-3.9-11.7-3.9
		c-4.7,0-7.3,2.1-7.3,4.9V99c0,3.6,2.3,4.9,12.2,7.3c11.4,2.9,17.9,7,17.9,16.9v0.5c0,11.2-8.6,17.4-20.5,17.4
		C244.2,141,236.7,138.7,230.4,134.3z"/>
	<path class="st0" d="M279.7,89.9c0-3.4,2.9-6.2,6.2-6.2h1.3c2.6,0,4.4,1.3,5.7,3.1l14.8,24.4l15-24.4c1.3-2.1,3.1-3.1,5.4-3.1h1.3
		c3.4,0,6.2,2.9,6.2,6.2v44.6c0,3.4-2.9,6.2-6.2,6.2s-6-2.9-6-6.2v-28l-10.9,16.6c-1.3,1.8-2.9,3.1-5.2,3.1c-2.3,0-3.9-1.3-5.2-3.1
		l-10.6-16.3v28c0,3.4-2.9,6-6,6c-3.4,0-6-2.6-6-6L279.7,89.9L279.7,89.9z"/>
	<path class="st0" d="M345.4,116.1V89.7c0-3.4,2.9-6.2,6.2-6.2c3.4,0,6.2,2.6,6.2,6.2v25.9c0,9.1,4.7,13.8,12.2,13.8
		c7.5,0,12.2-4.7,12.2-13.5V89.7c0-3.4,2.9-6.2,6.2-6.2c3.4,0,6.2,2.6,6.2,6.2v25.9c0,17.1-9.6,25.4-24.6,25.4
		C354.5,141,345.4,132.7,345.4,116.1z"/>
	<path class="st0" d="M402.5,134.3c-1.3-1-2.3-2.6-2.3-4.7c0-3.1,2.6-5.7,5.7-5.7c1.6,0,2.6,0.5,3.6,1c4.2,3.1,8.8,4.9,14.3,4.9
		c4.9,0,8-2.1,8-5.2v-0.3c0-3.1-1.8-4.7-11.4-7.3c-11.4-2.9-18.7-6-18.7-17.1v-0.3c0-10.1,8.3-16.9,19.7-16.9
		c6.7,0,12.7,1.8,17.9,4.9c1.3,0.8,2.9,2.6,2.9,4.9c0,3.1-2.6,5.7-5.7,5.7c-1.3,0-2.1-0.3-3.1-0.8c-4.2-2.3-8-3.9-11.7-3.9
		c-4.7,0-7.3,2.1-7.3,4.9V99c0,3.6,2.3,4.9,12.2,7.3c11.4,2.9,17.9,7,17.9,16.9v0.5c0,11.2-8.6,17.4-20.5,17.4
		C416.2,141,408.7,138.7,402.5,134.3z"/>
</g>
<g>
	<g>
		
			<linearGradient id="SVGID_1_" gradientUnits="userSpaceOnUse" x1="19.4502" y1="221.6976" x2="18.6897" y2="152.6189" gradientTransform="matrix(0.9933 -0.1156 -0.1156 -0.9933 97.8266 238.9383)">
			<stop  offset="0" style="stop-color:#F39200"/>
			<stop  offset="0.1445" style="stop-color:#F59A00"/>
			<stop  offset="0.3913" style="stop-color:#F9AF00"/>
			<stop  offset="0.7079" style="stop-color:#FFCF00"/>
			<stop  offset="1" style="stop-color:#FFED00"/>
		</linearGradient>
		<polygon class="st1" points="111.1,68.4 125.9,48.2 88.5,56.7 65.7,25.8 63.9,48.4 83.3,74.9 		"/>
	</g>
	<g>
		
			<linearGradient id="SVGID_2_" gradientUnits="userSpaceOnUse" x1="71.3043" y1="121.0534" x2="70.5438" y2="51.9769" gradientTransform="matrix(0.197 -0.9804 -0.9804 -0.197 113.0868 144.7692)">
			<stop  offset="0" style="stop-color:#E93F8F"/>
			<stop  offset="1" style="stop-color:#BD1778"/>
		</linearGradient>
		<polygon class="st2" points="64.1,48.4 49.1,28.2 46,66.3 9.4,78.3 30.1,87.1 61.5,76.7 		"/>
	</g>
	<g>
		
			<linearGradient id="SVGID_3_" gradientUnits="userSpaceOnUse" x1="-41.8576" y1="157.7209" x2="-61.5534" y2="120.7914" gradientTransform="matrix(0.9817 -0.1903 -0.1903 -0.9817 111.2818 235.2288)">
			<stop  offset="0" style="stop-color:#1D71B8"/>
			<stop  offset="1" style="stop-color:#009EE3"/>
		</linearGradient>
		<polygon class="st3" points="31.2,87.3 7.3,95.4 42.6,110.2 42.8,148.6 57.6,131.4 57.4,98.5 		"/>
	</g>
</g>
<g>
	<path class="st0" d="M470.4,119H460c-2.1,0-3.9-1.8-3.9-3.9s1.8-3.9,3.9-3.9h10.4v-10.1c0-2.3,1.8-4.2,4.2-4.2
		c2.3,0,4.2,1.8,4.2,4.2v10.1h10.4c2.1,0,3.9,1.8,3.9,3.9c0,2.3-1.8,3.9-3.9,3.9h-10.4v9.9c0,2.3-1.8,4.2-4.2,4.2
		c-2.3,0-4.2-1.8-4.2-4.2V119z"/>
</g>
<g>
	<g>
		<path class="st4" d="M119.9,76.2l5.4-12.2c0.3-0.8,0.8-1,1.6-1h0.3c0.8,0,1.3,0.5,1.6,1l5.4,12.2c0,0.3,0.3,0.3,0.3,0.5
			c0,0.8-0.5,1.3-1.3,1.3c-0.5,0-1-0.3-1.3-1l-1.3-2.6h-7.3l-1.3,2.9c-0.3,0.5-0.8,0.8-1.3,0.8c-0.8,0-1.3-0.5-1.3-1.3
			C119.6,76.7,119.6,76.4,119.9,76.2z M129.5,72l-2.6-6l-2.6,6H129.5z"/>
		<path class="st4" d="M135,70.7L135,70.7c0-4.2,3.1-7.8,7.5-7.8c2.3,0,3.6,0.5,4.9,1.6c0.3,0.3,0.5,0.5,0.5,1
			c0,0.8-0.5,1.3-1.3,1.3c-0.3,0-0.5-0.3-0.8-0.3c-1-0.8-2.1-1-3.6-1c-2.9,0-4.9,2.3-4.9,5.2l0,0c0,3.1,2.1,5.2,4.9,5.2
			c1.3,0,2.6-0.5,3.6-1V72H143c-0.5,0-1-0.5-1-1c0-0.5,0.5-1,1-1h4.2c0.8,0,1.3,0.5,1.3,1.3v3.9c0,0.8-0.3,1.3-0.8,1.6
			c-1.3,0.8-3.1,1.6-5.2,1.6C138.1,78.3,135,74.9,135,70.7z"/>
		<path class="st4" d="M151.3,76.7V64.5c0-0.8,0.5-1.3,1.3-1.3h8.6c0.5,0,1,0.5,1,1.3c0,0.8-0.5,1.3-1,1.3h-7.3v3.9h6.5
			c0.5,0,1,0.5,1,1.3c0,0.5-0.5,1-1,1h-6.5v3.9h7.5c0.5,0,1,0.5,1,1c0,0.8-0.5,1-1,1h-8.8C151.8,78,151.3,77.5,151.3,76.7z"/>
		<path class="st4" d="M164.8,64.5c0-0.8,0.5-1.3,1.3-1.3h0.3c0.5,0,1,0.3,1.3,0.8l7.5,9.6v-9.1c0-0.8,0.5-1.3,1.3-1.3
			c0.8,0,1.3,0.5,1.3,1.3V77c0,0.8-0.5,1.3-1.3,1.3l0,0c-0.5,0-1-0.3-1.3-0.8l-7.5-9.9V77c0,0.8-0.5,1.3-1.3,1.3S165,77.7,165,77
			V64.5H164.8z"/>
		<path class="st4" d="M179.8,70.7L179.8,70.7c0-4.2,3.1-7.8,7.5-7.8c2.3,0,3.9,0.8,5.2,1.6c0.3,0.3,0.5,0.5,0.5,1
			c0,0.8-0.5,1.3-1.3,1.3c-0.3,0-0.5,0-0.8-0.3c-1-0.8-2.1-1.3-3.6-1.3c-2.9,0-4.9,2.3-4.9,5.2l0,0c0,2.9,2.1,5.2,4.9,5.2
			c1.6,0,2.6-0.5,3.6-1.3c0.3-0.3,0.5-0.3,0.8-0.3c0.5,0,1.3,0.5,1.3,1.3c0,0.5-0.3,0.8-0.5,1c-1.3,1.3-3.1,2.1-5.4,2.1
			C183.2,78.3,179.8,74.9,179.8,70.7z"/>
		<path class="st4" d="M195.4,76.7V64.5c0-0.8,0.5-1.3,1.3-1.3h8.6c0.5,0,1,0.5,1,1.3c0,0.8-0.5,1.3-1,1.3H198v3.9h6.5
			c0.5,0,1.3,0.5,1.3,1.3c0,0.5-0.5,1-1.3,1H198v3.9h7.5c0.5,0,1,0.5,1,1c0,0.8-0.5,1-1,1h-8.8C195.9,78,195.4,77.5,195.4,76.7z"/>
	</g>
	<g>
		<path class="st4" d="M120.7,149.6c0-0.8,0.5-1.3,1.3-1.3h8.8c0.8,0,1.3,0.5,1.3,1.3s-0.5,1.3-1.3,1.3h-7.5v4.2h6.5
			c0.8,0,1.3,0.5,1.3,1.3c0,0.8-0.5,1.3-1.3,1.3h-6.5v5.2c0,0.8-0.5,1.3-1.3,1.3s-1.3-0.5-1.3-1.3V149.6z"/>
		<path class="st4" d="M133.9,149.6c0-0.8,0.5-1.3,1.3-1.3h5.4c1.8,0,3.4,0.5,4.4,1.6c0.8,0.8,1.3,2.1,1.3,3.4l0,0
			c0,2.6-1.3,3.9-3.4,4.7l2.9,3.6c0.3,0.3,0.5,0.5,0.5,1c0,0.8-0.5,1.3-1.3,1.3c-0.5,0-1-0.3-1.3-0.8l-3.6-4.9h-3.4v4.4
			c0,0.8-0.5,1.3-1.3,1.3s-1.3-0.5-1.3-1.3v-13H133.9z M140.4,156.1c1.8,0,3.1-1,3.1-2.6l0,0c0-1.6-1-2.6-3.1-2.6h-3.9v5.2H140.4z"
			/>
		<path class="st4" d="M147.7,162.1l5.7-12.7c0.3-0.8,0.8-1,1.6-1h0.3c0.8,0,1.3,0.5,1.6,1l5.7,12.7c0,0.3,0.3,0.5,0.3,0.5
			c0,0.8-0.5,1.3-1.3,1.3c-0.5,0-1-0.3-1.3-1l-1.6-2.9h-7.3l-1.3,3.1c-0.3,0.5-0.8,0.8-1.3,0.8c-0.8,0-1.3-0.5-1.3-1.3
			C147.7,162.6,147.7,162.3,147.7,162.1z M157.5,157.7l-2.6-6.2l-2.6,6.2H157.5z"/>
		<path class="st4" d="M164.5,149.6c0-0.8,0.5-1.3,1.3-1.3h0.3c0.5,0,1,0.3,1.3,0.8l7.5,10.1v-9.6c0-0.8,0.5-1.3,1.3-1.3
			c0.8,0,1.3,0.5,1.3,1.3v13c0,0.8-0.5,1.3-1.3,1.3l0,0c-0.5,0-1-0.3-1.3-0.8l-7.8-10.4v9.9c0,0.8-0.5,1.3-1.3,1.3s-1.3-0.5-1.3-1.3
			V149.6z"/>
		<path class="st4" d="M179.8,156.1L179.8,156.1c0-4.4,3.1-8,7.8-8c2.3,0,3.9,0.8,5.2,1.8c0.3,0.3,0.5,0.5,0.5,1
			c0,0.8-0.5,1.3-1.3,1.3c-0.3,0-0.5-0.3-0.8-0.3c-1-0.8-2.1-1.3-3.6-1.3c-2.9,0-4.9,2.3-4.9,5.4l0,0c0,3.1,2.1,5.4,4.9,5.4
			c1.6,0,2.6-0.5,3.9-1.6c0.3-0.3,0.5-0.3,0.8-0.3c0.8,0,1.3,0.5,1.3,1.3c0,0.5-0.3,0.8-0.5,1c-1.3,1.3-3.1,2.1-5.4,2.1
			C183.2,164.1,179.8,160.5,179.8,156.1z"/>
		<path class="st4" d="M195.7,162.6v-13c0-0.8,0.5-1.3,1.3-1.3h8.8c0.5,0,1.3,0.5,1.3,1.3s-0.5,1.3-1.3,1.3h-7.5v3.9h6.5
			c0.5,0,1.3,0.5,1.3,1.3s-0.5,1.3-1.3,1.3h-6.5v4.2h7.5c0.5,0,1.3,0.5,1.3,1.3c0,0.8-0.5,1.3-1.3,1.3H197
			C196.2,163.9,195.7,163.4,195.7,162.6z"/>
	</g>
	<g>
		<path d="M225,162.8v-10.4c0-0.3,0.3-0.8,0.5-0.8h7.3c0.3,0,0.5,0.3,0.5,0.5s-0.3,0.5-0.5,0.5h-6.5v3.9h5.7c0.3,0,0.5,0.3,0.5,0.5
			c0,0.3-0.3,0.5-0.5,0.5h-5.7v4.2h6.7c0.3,0,0.5,0.3,0.5,0.5c0,0.3-0.3,0.5-0.5,0.5h-7.3C225.2,163.6,225,163.4,225,162.8z"/>
		<path d="M235.6,152.7c0-0.3,0.3-0.8,0.8-0.8h3.4c3.6,0,6.2,2.6,6.2,5.7l0,0c0,3.4-2.6,5.7-6.2,5.7h-3.4c-0.3,0-0.8-0.3-0.8-0.8
			V152.7z M239.8,162.3c2.9,0,4.9-2.1,4.9-4.7l0,0c0-2.6-1.8-4.7-4.9-4.7h-2.6v9.1h2.6V162.3z"/>
		<path d="M248.1,158.7v-6.2c0-0.3,0.3-0.8,0.5-0.8c0.3,0,0.8,0.3,0.8,0.8v6c0,2.6,1.3,3.9,3.6,3.9c2.1,0,3.4-1.3,3.4-3.9v-6.2
			c0-0.3,0.3-0.8,0.8-0.8c0.3,0,0.5,0.3,0.5,0.8v6c0,3.4-1.8,5.2-4.9,5.2C250.1,163.9,248.1,162.1,248.1,158.7z"/>
		<path d="M260,157.9L260,157.9c0-3.4,2.3-6,6-6c1.8,0,3.1,0.5,4.2,1.6c0.3,0,0.3,0.3,0.3,0.5c0,0.3-0.3,0.5-0.8,0.5
			c-0.3,0-0.3,0-0.5-0.3c-0.8-0.8-1.8-1.3-3.4-1.3c-2.6,0-4.4,2.1-4.4,4.7l0,0c0,2.6,1.8,4.7,4.4,4.7c1.6,0,2.3-0.5,3.4-1.3
			c0,0,0.3-0.3,0.5-0.3c0.3,0,0.5,0.3,0.5,0.5s0,0.3-0.3,0.5c-1,1-2.3,1.8-4.4,1.8C262.3,163.9,260,161.3,260,157.9z"/>
		<path d="M271.4,162.8l4.7-10.4c0.3-0.3,0.5-0.5,0.8-0.5l0,0c0.5,0,0.8,0.3,0.8,0.5l4.7,10.4v0.3c0,0.3-0.3,0.5-0.5,0.5
			s-0.5-0.3-0.5-0.5l-1.3-2.6h-6.5l-1.3,2.6c0,0.3-0.3,0.5-0.5,0.5c-0.3,0-0.5-0.3-0.5-0.5C271.4,163.1,271.4,162.8,271.4,162.8z
			 M279.7,159.5l-2.6-6l-2.6,6H279.7z"/>
		<path d="M286.5,153.2h-3.4c-0.3,0-0.5-0.3-0.5-0.5s0.3-0.5,0.5-0.5h8c0.3,0,0.5,0.3,0.5,0.5c0,0.3-0.3,0.5-0.5,0.5h-3.4v9.9
			c0,0.3-0.3,0.8-0.8,0.8c-0.3,0-0.8-0.3-0.8-0.8v-9.9H286.5z"/>
		<path d="M294,152.7c0-0.3,0.3-0.8,0.5-0.8c0.3,0,0.8,0.3,0.8,0.8v10.4c0,0.3-0.3,0.8-0.8,0.8c-0.3,0-0.5-0.3-0.5-0.8V152.7z"/>
		<path d="M297.6,157.9L297.6,157.9c0-3.1,2.3-6,6-6s6,2.9,6,6l0,0c0,3.1-2.3,6-6,6S297.6,161,297.6,157.9z M308.3,157.9
			L308.3,157.9c0-2.6-1.8-4.9-4.7-4.9c-2.6,0-4.7,2.1-4.7,4.7l0,0c0,2.6,1.8,4.7,4.7,4.7C306.2,162.6,308.3,160.5,308.3,157.9z"/>
		<path d="M311.9,152.7c0-0.3,0.3-0.8,0.5-0.8h0.3c0.3,0,0.5,0.3,0.8,0.3l7,9.1v-8.8c0-0.3,0.3-0.5,0.8-0.5c0.3,0,0.5,0.3,0.5,0.5
			v10.4c0,0.3-0.3,0.5-0.5,0.5l0,0c-0.3,0-0.5-0.3-0.8-0.5l-7.3-9.1v9.1c0,0.3-0.3,0.5-0.5,0.5c-0.3,0-0.5-0.3-0.5-0.5v-10.1H311.9z
			"/>
		<path d="M337.3,163.6l-1.6-1.6c-1,1-2.3,1.8-3.9,1.8c-2.1,0-3.6-1.3-3.6-3.4l0,0c0-1.6,1-2.6,2.9-3.4c-0.8-1-1-1.6-1-2.6l0,0
			c0-1.6,1.3-2.9,3.1-2.9c1.6,0,2.9,1.3,2.9,2.6l0,0c0,1.6-1,2.3-2.9,3.1l2.6,2.6c0.5-0.8,0.8-1.3,1.3-2.1c0-0.3,0.3-0.3,0.5-0.3
			c0.3,0,0.5,0.3,0.5,0.5v0.3c-0.5,1-1,1.8-1.6,2.6l1.6,1.6c0.3,0.3,0.3,0.3,0.3,0.5s-0.3,0.5-0.5,0.5
			C337.6,163.9,337.3,163.6,337.3,163.6z M335,161l-3.1-3.1c-1.6,0.5-2.3,1.6-2.3,2.6l0,0c0,1.3,1,2.1,2.3,2.1S334,162.1,335,161z
			 M334.5,154.5L334.5,154.5c0-1-0.8-1.6-1.6-1.6c-1,0-1.8,0.8-1.8,1.6l0,0c0,0.8,0.3,1.3,1,2.1
			C333.7,156.4,334.5,155.6,334.5,154.5z"/>
		<path d="M344.9,152.7c0-0.3,0.3-0.8,0.5-0.8h7.3c0.3,0,0.5,0.3,0.5,0.5s-0.3,0.5-0.5,0.5h-6.5v4.4h5.7c0.3,0,0.5,0.3,0.5,0.5
			c0,0.3-0.3,0.5-0.5,0.5h-5.7v4.4c0,0.3-0.3,0.8-0.8,0.8c-0.3,0-0.5-0.3-0.5-0.8V152.7z"/>
		<path d="M354.5,157.9L354.5,157.9c0-3.1,2.3-6,6-6c3.6,0,6,2.9,6,6l0,0c0,3.1-2.3,6-6,6S354.5,161,354.5,157.9z M365.1,157.9
			L365.1,157.9c0-2.6-1.8-4.9-4.7-4.9c-2.6,0-4.7,2.1-4.7,4.7l0,0c0,2.6,1.8,4.7,4.7,4.7C363,162.6,365.1,160.5,365.1,157.9z"/>
		<path d="M368.7,152.7c0-0.3,0.3-0.8,0.5-0.8h4.4c1.3,0,2.6,0.5,3.4,1c0.5,0.5,0.8,1.3,0.8,2.3l0,0c0,1.8-1.3,3.1-3.1,3.4l2.9,3.6
			c0.3,0.3,0.3,0.3,0.3,0.5c0,0.3-0.3,0.5-0.8,0.5c-0.3,0-0.5-0.3-0.5-0.3l-3.4-4.2h-3.4v3.9c0,0.3-0.3,0.8-0.8,0.8
			c-0.3,0-0.5-0.3-0.5-0.8v-10.1H368.7z M373.7,157.9c1.8,0,3.1-0.8,3.1-2.3l0,0c0-1.3-1-2.3-2.9-2.3h-3.6v4.7
			C370.3,157.9,373.7,157.9,373.7,157.9z"/>
		<path d="M380.4,152.7c0-0.3,0.3-0.8,0.8-0.8h0.3c0.3,0,0.5,0.3,0.5,0.3l4.2,6.2l3.9-6.2c0-0.3,0.3-0.3,0.5-0.3h0.3
			c0.3,0,0.5,0.3,0.5,0.8v10.4c0,0.3-0.3,0.8-0.5,0.8c-0.3,0-0.8-0.3-0.8-0.8v-8.6l-3.6,5.4c-0.3,0.3-0.3,0.3-0.5,0.3
			c-0.3,0-0.5,0-0.5-0.3l-3.6-5.4v8.6c0,0.3-0.3,0.5-0.8,0.5c-0.3,0-0.5-0.3-0.5-0.5L380.4,152.7L380.4,152.7z"/>
		<path d="M393.6,162.8l4.7-10.4c0.3-0.3,0.5-0.5,0.8-0.5l0,0c0.5,0,0.8,0.3,0.8,0.5l4.7,10.4v0.3c0,0.3-0.3,0.5-0.5,0.5
			c-0.3,0-0.5-0.3-0.5-0.5l-1.3-2.6h-6.5l-1.3,2.6c0,0.3-0.3,0.5-0.5,0.5c-0.3,0-0.5-0.3-0.5-0.5
			C393.6,163.1,393.6,162.8,393.6,162.8z M401.7,159.5l-2.6-6l-2.6,6H401.7z"/>
		<path d="M408.4,153.2H405c-0.3,0-0.5-0.3-0.5-0.5s0.3-0.5,0.5-0.5h8c0.3,0,0.5,0.3,0.5,0.5c0,0.3-0.3,0.5-0.5,0.5h-3.4v9.9
			c0,0.3-0.3,0.8-0.8,0.8c-0.3,0-0.8-0.3-0.8-0.8v-9.9H408.4z"/>
		<path d="M415.9,152.7c0-0.3,0.3-0.8,0.5-0.8c0.3,0,0.8,0.3,0.8,0.8v10.4c0,0.3-0.3,0.8-0.8,0.8c-0.3,0-0.5-0.3-0.5-0.8V152.7z"/>
		<path d="M419.8,157.9L419.8,157.9c0-3.1,2.3-6,6-6c3.6,0,6,2.9,6,6l0,0c0,3.1-2.3,6-6,6C422.2,163.9,419.8,161,419.8,157.9z
			 M430.2,157.9L430.2,157.9c0-2.6-1.8-4.9-4.7-4.9c-2.6,0-4.7,2.1-4.7,4.7l0,0c0,2.6,1.8,4.7,4.7,4.7
			C428.4,162.6,430.2,160.5,430.2,157.9z"/>
		<path d="M433.8,152.7c0-0.3,0.3-0.8,0.5-0.8h0.3c0.3,0,0.5,0.3,0.8,0.3l7,9.1v-8.8c0-0.3,0.3-0.5,0.5-0.5c0.3,0,0.5,0.3,0.5,0.5
			v10.4c0,0.3-0.3,0.5-0.5,0.5l0,0c-0.3,0-0.5-0.3-0.8-0.5l-7.3-9.1v9.1c0,0.3-0.3,0.5-0.5,0.5c-0.3,0-0.5-0.3-0.5-0.5V152.7z"/>
	</g>
	<path d="M216.9,156.9c0,0.8-0.8,1.6-1.6,1.6c-0.8,0-1.6-0.8-1.6-1.6s0.8-1.6,1.6-1.6S216.9,156.1,216.9,156.9z"/>
</g>
<g>
	
		<linearGradient id="SVGID_4_" gradientUnits="userSpaceOnUse" x1="153.4721" y1="131.4795" x2="165.0231" y2="131.4795" gradientTransform="matrix(1 0 0 -1 0 165.8898)">
		<stop  offset="0" style="stop-color:#1D71B8"/>
		<stop  offset="1" style="stop-color:#009EE3"/>
	</linearGradient>
	<path class="st5" d="M158.3,36l-3.1,0.8c-0.8,0.3-1.3-0.3-1.6-1c-0.3-0.8,0.3-1.3,1-1.6l3.1-0.8l-0.8-3.1c-0.3-0.8,0.3-1.3,1-1.6
		c0.8-0.3,1.3,0.3,1.6,1l0.8,3.1l3.1-0.8c0.8-0.3,1.3,0.3,1.6,1c0.3,0.8-0.3,1.3-1,1.6l-3.1,0.8l0.8,3.1c0.3,0.8-0.3,1.3-1,1.6
		s-1.3-0.3-1.6-1L158.3,36z"/>
</g>
<g>
	
		<linearGradient id="SVGID_5_" gradientUnits="userSpaceOnUse" x1="130.0939" y1="126.2395" x2="137.252" y2="126.2395" gradientTransform="matrix(1 0 0 -1 0 165.8898)">
		<stop  offset="0" style="stop-color:#F39200"/>
		<stop  offset="0.1445" style="stop-color:#F59A00"/>
		<stop  offset="0.3913" style="stop-color:#F9AF00"/>
		<stop  offset="0.7079" style="stop-color:#FFCF00"/>
		<stop  offset="1" style="stop-color:#FFED00"/>
	</linearGradient>
	<path class="st6" d="M134.2,40.6l-0.8,2.1c-0.3,0.5-0.8,0.8-1,0.5c-0.5-0.3-0.5-0.8-0.5-1l0.8-2.1l-2.1-0.8c-0.5-0.3-0.8-0.8-0.5-1
		c0.3-0.5,0.8-0.8,1-0.5l2.1,0.8l0.8-2.1c0.3-0.5,0.8-0.5,1-0.5c0.5,0.3,0.5,0.8,0.5,1l-0.8,2.1l1.8,0.8c0.5,0.3,0.8,0.8,0.5,1
		c-0.3,0.5-0.8,0.8-1,0.5L134.2,40.6z"/>
</g>
<g>
	
		<linearGradient id="SVGID_6_" gradientUnits="userSpaceOnUse" x1="161.079" y1="158.2034" x2="172.5797" y2="158.2034" gradientTransform="matrix(1 0 0 -1 0 165.8898)">
		<stop  offset="0" style="stop-color:#008D36"/>
		<stop  offset="7.249832e-02" style="stop-color:#209335"/>
		<stop  offset="0.3346" style="stop-color:#5BA62F"/>
		<stop  offset="0.5836" style="stop-color:#7CB428"/>
		<stop  offset="0.8118" style="stop-color:#8FBE21"/>
		<stop  offset="1" style="stop-color:#95C11F"/>
	</linearGradient>
	<path class="st7" d="M165.6,9h-3.1c-0.8,0-1.3-0.5-1.3-1.3s0.5-1.3,1.3-1.3h3.1V3.3c0-0.8,0.5-1.3,1.3-1.3s1.3,0.5,1.3,1.3v3.1h3.1
		c0.8,0,1.3,0.5,1.3,1.3S172.1,9,171.3,9h-3.1v3.1c0,0.8-0.5,1.3-1.3,1.3s-1.3-0.5-1.3-1.3V9z"/>
</g>
<g>
	
		<linearGradient id="SVGID_7_" gradientUnits="userSpaceOnUse" x1="624.6649" y1="690.2622" x2="633.0402" y2="690.2622" gradientTransform="matrix(0.9866 0.163 0.163 -0.9866 -590.8234 595.4091)">
		<stop  offset="0" style="stop-color:#E93F8F"/>
		<stop  offset="1" style="stop-color:#BD1778"/>
	</linearGradient>
	<path class="st8" d="M140.4,16.8l-1.8-2.3c-0.3-0.8-0.3-1.6,0.3-1.8c0.5-0.3,1.3-0.3,1.6,0.3l1.8,2.3l2.3-1.8
		c0.5-0.5,1.3-0.3,1.8,0.3c0.5,0.5,0.3,1.3-0.3,1.8l-2.3,1.8l1.8,2.3c0.3,0.5,0.3,1.3-0.3,1.6c-0.5,0.3-1.3,0.3-1.6-0.3l-1.8-2.3
		l-2.3,1.8c-0.5,0.5-1.3,0.3-1.6-0.3c-0.5-0.5-0.3-1.3,0.3-1.8L140.4,16.8z"/>
</g>
</svg>
